<svg width="14" height="14" viewBox="0 0 14 14" fill="none" xmlns="http://www.w3.org/2000/svg">
<path d="M6.89301 4.5132L7.217 5.27102C7.23897 5.33692 7.29938 5.37536 7.35978 5.38085L8.1835 5.45773C8.35923 5.47421 8.42513 5.68837 8.29882 5.80369L7.67829 6.34735C7.62886 6.39128 7.6069 6.45718 7.62337 6.51758L7.80459 7.32483C7.84303 7.49507 7.66181 7.62686 7.50805 7.539L6.79965 7.11615C6.74474 7.08321 6.67335 7.08321 6.61843 7.11615L5.91004 7.539C5.76177 7.62686 5.57506 7.49507 5.6135 7.32483L5.79472 6.51758C5.81119 6.45718 5.78922 6.39128 5.7398 6.34735L5.11927 5.80369C4.98747 5.68837 5.05886 5.47421 5.23459 5.45773L6.05831 5.38085C6.1242 5.37536 6.17912 5.33692 6.20658 5.27651L6.53057 4.51869C6.59647 4.35395 6.82162 4.35395 6.89301 4.5132Z" stroke="#F0C932" stroke-width="0.549146" stroke-miterlimit="10" stroke-linecap="round" stroke-linejoin="round"/>
<path d="M10.4445 6.11926C10.4587 4.05693 8.79837 2.37356 6.73603 2.35937C4.67369 2.34518 2.99033 4.00553 2.97614 6.06787C2.96195 8.13021 4.6223 9.81357 6.68464 9.82776C8.74697 9.84196 10.4303 8.1816 10.4445 6.11926Z" stroke="#F0C932" stroke-width="0.549146" stroke-miterlimit="10" stroke-linecap="round" stroke-linejoin="round"/>
<path d="M6.20107 9.79049L5.27301 12.1244L4.09784 10.779L2.3241 10.9437L3.49927 8.00027" stroke="#F0C932" stroke-width="0.549146" stroke-miterlimit="10" stroke-linecap="round" stroke-linejoin="round"/>
<path d="M7.21152 9.79049L8.14507 12.1244L9.31475 10.779L11.094 10.9437L9.91332 8.00027" stroke="#F0C932" stroke-width="0.549146" stroke-miterlimit="10" stroke-linecap="round" stroke-linejoin="round"/>
</svg>
